<svg id="Layer_1" data-name="Layer 1" xmlns="http://www.w3.org/2000/svg" viewBox="0 0 140.5 72.57"><defs><style>.cls-1{fill:#a9ffa4;}.cls-2{fill:#ff2ad8;}</style></defs><ellipse class="cls-1" cx="103.98" cy="8.29" rx="13.5" ry="7.5"/><path d="M120,5.07c6.91,0,12.75,3.09,12.75,6.75s-5.84,6.75-12.75,6.75-12.75-3.09-12.75-6.75S113.09,5.07,120,5.07m0-1.5c-7.88,0-14.25,3.69-14.25,8.25s6.37,8.25,14.25,8.25,14.25-3.69,14.25-8.25S127.88,3.57,120,3.57Z" transform="translate(-16.03 -3.53)"/><ellipse class="cls-2" cx="103.98" cy="31.54" rx="10.5" ry="30.75"/><path d="M120,5.07c4.6,0,9.75,12.32,9.75,30s-5.15,30-9.75,30-9.75-12.31-9.75-30,5.14-30,9.75-30m0-1.5c-6.21,0-11.25,14.1-11.25,31.5s5,31.5,11.25,31.5,11.25-14.1,11.25-31.5S126.22,3.57,120,3.57Z" transform="translate(-16.03 -3.53)"/><path class="cls-1" d="M88.57,69.57a3.66,3.66,0,0,1-1.94-.48c-4.87-2.83-2-17.44,6.29-31.87,7.3-12.66,16.78-21.86,22.5-21.86a3.74,3.74,0,0,1,1.93.48c4.91,2.84,2.09,17.45-6.25,31.88-7.31,12.66-16.79,21.85-22.5,21.85Z" transform="translate(-16.03 -3.53)"/><path d="M115.45,16.22a3,3,0,0,1,1.5.37c2,1.13,2.53,5,1.5,10.4a66.91,66.91,0,0,1-8.1,20.46c-8.06,13.95-17.3,21.48-21.9,21.48a3,3,0,0,1-1.5-.38c-2-1.12-2.54-5-1.5-10.39a66.81,66.81,0,0,1,8.1-20.46c8-14,17.29-21.48,21.88-21.48m0-1.5c-5.89,0-15.58,9-23.19,22.23-8.68,15-11.38,29.8-6,32.91a4.58,4.58,0,0,0,2.31.57c5.9,0,15.59-9,23.19-22.23,8.69-15,11.39-29.81,6-32.91A4.43,4.43,0,0,0,115.43,14.72Z" transform="translate(-16.03 -3.53)"/><path class="cls-1" d="M151.45,69.68c-5.75,0-15.23-9.2-22.5-21.86-8.37-14.43-11.19-29-6.32-31.87a3.66,3.66,0,0,1,1.94-.48c5.74,0,15.22,9.19,22.5,21.85,8.34,14.43,11.22,29,6.28,31.88A3.73,3.73,0,0,1,151.45,69.68Z" transform="translate(-16.03 -3.53)"/><path d="M124.57,16.22h0c4.59,0,13.83,7.5,21.88,21.48a66.81,66.81,0,0,1,8.1,20.46c1,5.38.41,9.27-1.5,10.39a3,3,0,0,1-1.5.38c-4.6,0-13.84-7.5-21.9-21.48A66.91,66.91,0,0,1,121.55,27c-1-5.39-.4-9.27,1.5-10.4a3,3,0,0,1,1.5-.37m0-2.15a4.58,4.58,0,0,0-2.31.57c-5.38,3.11-2.68,17.85,6,32.91,7.61,13.17,17.3,22.23,23.19,22.23a4.43,4.43,0,0,0,2.33-.57c5.38-3.1,2.68-17.85-6-32.91-7.61-13.17-17.3-22.23-23.19-22.23Z" transform="translate(-16.03 -3.53)"/><ellipse class="cls-1" cx="24.08" cy="8.25" rx="13.5" ry="7.5"/><path d="M40.11,5C47,5,52.86,8.12,52.86,11.78S47,18.53,40.11,18.53s-12.75-3.09-12.75-6.75S33.2,5,40.11,5m0-1.5c-7.87,0-14.25,3.69-14.25,8.25S32.24,20,40.11,20s14.25-3.69,14.25-8.25S48,3.53,40.11,3.53Z" transform="translate(-16.03 -3.53)"/><ellipse class="cls-2" cx="24.08" cy="31.5" rx="10.5" ry="30.75"/><path d="M40.11,5c4.61,0,9.75,12.31,9.75,30s-5.14,30-9.75,30-9.75-12.32-9.75-30S35.51,5,40.11,5m0-1.5c-6.21,0-11.25,14.1-11.25,31.5s5,31.5,11.25,31.5S51.36,52.43,51.36,35,46.32,3.53,40.11,3.53Z" transform="translate(-16.03 -3.53)"/><path class="cls-1" d="M22.55,75.35a3.42,3.42,0,0,1-.9-.12c-5.49-1.5-6.5-16.32-2.18-32.42,4.07-15.19,11.63-27.1,17.21-27.1a3.42,3.42,0,0,1,.9.12c5.49,1.5,6.49,16.32,2.17,32.41C35.69,63.44,28.13,75.35,22.55,75.35Z" transform="translate(-16.03 -3.53)"/><path d="M36.68,16.46a2.74,2.74,0,0,1,.7.09c2.18.58,3.74,4.18,4.19,9.64A67.27,67.27,0,0,1,39,48.05C34.64,64.44,27,74.6,22.53,74.6a2.8,2.8,0,0,1-.7-.09c-2.18-.59-3.74-4.19-4.19-9.65A67.79,67.79,0,0,1,20.18,43c4.39-16.4,12-26.55,16.5-26.55m0-1.87c-5.91,0-13.7,11.85-17.93,27.66-4.5,16.8-3.3,31.73,2.7,33.33a3.44,3.44,0,0,0,1.1.15c5.91,0,13.69-11.85,18-27.66,4.5-16.8,3.3-31.72-2.7-33.33a4.06,4.06,0,0,0-1.1-.15Z" transform="translate(-16.03 -3.53)"/><path class="cls-1" d="M59.18,75.35C53.6,75.35,46,63.44,42,48.24c-4.32-16.09-3.31-30.94,2.18-32.41a3.42,3.42,0,0,1,.9-.12c5.58,0,13.14,11.91,17.2,27.1,4.32,16.1,3.32,31-2.17,32.42A3.42,3.42,0,0,1,59.18,75.35Z" transform="translate(-16.03 -3.53)"/><path d="M45.05,16.46c4.5,0,12.09,10.15,16.5,26.55a67.5,67.5,0,0,1,2.53,21.85c-.45,5.46-2,9-4.18,9.65a2.82,2.82,0,0,1-.71.09c-4.5,0-12.09-10.16-16.5-26.55a67.53,67.53,0,0,1-2.53-21.86c.45-5.46,2-9,4.18-9.64a2.82,2.82,0,0,1,.71-.09m0-1.5a3.74,3.74,0,0,0-1.1.15c-6,1.6-7.21,16.5-2.7,33.33,4.23,15.81,12,27.66,18,27.66a4.06,4.06,0,0,0,1.1-.15c6-1.61,7.21-16.5,2.7-33.33C58.82,26.81,51.05,15,45.05,15Z" transform="translate(-16.03 -3.53)"/></svg>